<?xml version="1.0" encoding="UTF-8"?>
<!DOCTYPE svg PUBLIC "-//W3C//DTD SVG 1.1//EN" "http://www.w3.org/Graphics/SVG/1.1/DTD/svg11.dtd">
<svg xmlns="http://www.w3.org/2000/svg" version="1.1" width="64px" height="64px" style="shape-rendering:geometricPrecision; text-rendering:geometricPrecision; image-rendering:optimizeQuality; fill-rule:evenodd; clip-rule:evenodd" xmlns:xlink="http://www.w3.org/1999/xlink">
<g><path style="opacity:0.817" fill="#b4f3ff" d="M 19.5,-0.5 C 20.8333,-0.5 22.1667,-0.5 23.5,-0.5C 22.5883,2.53498 22.5883,5.53498 23.5,8.5C 22.9763,11.3962 21.4763,12.0628 19,10.5C 16.8684,6.6857 17.035,3.01903 19.5,-0.5 Z"/></g>
<g><path style="opacity:0.901" fill="#394848" d="M 29.5,-0.5 C 30.1667,-0.5 30.8333,-0.5 31.5,-0.5C 31.5,4.5 31.5,9.5 31.5,14.5C 29.5,14.5 27.5,14.5 25.5,14.5C 27.6459,9.72701 28.9793,4.72701 29.5,-0.5 Z"/></g>
<g><path style="opacity:0.811" fill="#74ecff" d="M 39.5,-0.5 C 40.8333,-0.5 42.1667,-0.5 43.5,-0.5C 46.4161,4.05415 45.9161,8.05415 42,11.5C 40.2676,11.2664 39.4342,10.2664 39.5,8.5C 40.4117,5.53498 40.4117,2.53498 39.5,-0.5 Z"/></g>
<g><path style="opacity:1" fill="#192323" d="M 31.5,-0.5 C 32.1667,-0.5 32.8333,-0.5 33.5,-0.5C 34.0207,4.72701 35.3541,9.72701 37.5,14.5C 35.5,14.5 33.5,14.5 31.5,14.5C 31.5,9.5 31.5,4.5 31.5,-0.5 Z"/></g>
<g><path style="opacity:0.936" fill="#28b3fc" d="M 25.5,14.5 C 27.5,14.5 29.5,14.5 31.5,14.5C 31.5,30.8333 31.5,47.1667 31.5,63.5C 29.1667,63.5 26.8333,63.5 24.5,63.5C 6.98817,55.1346 2.48817,42.1346 11,24.5C 14.6352,19.3546 19.4685,16.0213 25.5,14.5 Z"/></g>
<g><path style="opacity:1" fill="#2d84fc" d="M 31.5,14.5 C 33.5,14.5 35.5,14.5 37.5,14.5C 55.8674,22.4332 60.7007,35.4332 52,53.5C 48.4449,58.2371 43.9449,61.5704 38.5,63.5C 36.1667,63.5 33.8333,63.5 31.5,63.5C 31.5,47.1667 31.5,30.8333 31.5,14.5 Z"/></g>
<g><path style="opacity:1" fill="#aceffe" d="M 27.5,19.5 C 29.4533,25.0738 30.12,31.0738 29.5,37.5C 27.1667,37.5 24.8333,37.5 22.5,37.5C 22.1494,30.892 23.8161,24.892 27.5,19.5 Z"/></g>
<g><path style="opacity:1" fill="#71e5fe" d="M 33.5,19.5 C 38.7954,24.2036 41.1287,30.2036 40.5,37.5C 38.1667,37.5 35.8333,37.5 33.5,37.5C 33.5,31.5 33.5,25.5 33.5,19.5 Z"/></g>
<g><path style="opacity:1" fill="#a8edfe" d="M 21.5,20.5 C 22.0431,20.56 22.3764,20.8933 22.5,21.5C 19.7769,26.4375 18.4436,31.7708 18.5,37.5C 15.8333,37.5 13.1667,37.5 10.5,37.5C 11.4151,29.9918 15.0817,24.3251 21.5,20.5 Z"/></g>
<g><path style="opacity:1" fill="#6ee2fe" d="M 40.5,20.5 C 47.4517,24.0764 51.1184,29.7431 51.5,37.5C 49.1667,37.5 46.8333,37.5 44.5,37.5C 44.8078,31.4284 43.4745,25.7617 40.5,20.5 Z"/></g>
<g><path style="opacity:1" fill="#40acfd" d="M 44.5,41.5 C 46.9479,40.5269 49.6146,40.1936 52.5,40.5C 52.7373,41.791 52.404,42.791 51.5,43.5C 49.7211,41.6565 47.3878,40.9898 44.5,41.5 Z"/></g>
<g><path style="opacity:1" fill="#a7edfe" d="M 10.5,40.5 C 13.1667,40.5 15.8333,40.5 18.5,40.5C 18.691,46.1224 20.0243,51.4557 22.5,56.5C 22.1667,56.8333 21.8333,57.1667 21.5,57.5C 15.5538,53.2661 11.8871,47.5995 10.5,40.5 Z"/></g>
<g><path style="opacity:1" fill="#aceffe" d="M 22.5,40.5 C 24.8333,40.5 27.1667,40.5 29.5,40.5C 29.8293,46.5368 29.4959,52.5368 28.5,58.5C 24.2214,53.2725 22.2214,47.2725 22.5,40.5 Z"/></g>
<g><path style="opacity:1" fill="#73e9fe" d="M 33.5,41.5 C 35.8333,41.5 38.1667,41.5 40.5,41.5C 40.5883,48.0737 38.4217,53.7404 34,58.5C 33.5006,52.8431 33.3339,47.1764 33.5,41.5 Z"/></g>
<g><path style="opacity:1" fill="#71e6fe" d="M 44.5,41.5 C 47.3878,40.9898 49.7211,41.6565 51.5,43.5C 50.2336,49.0325 47.2336,53.3658 42.5,56.5C 42.1667,56 41.8333,55.5 41.5,55C 43.2137,50.6466 44.2137,46.1466 44.5,41.5 Z"/></g>
</svg>
